<svg width="2732" height="2732" viewBox="0 0 2732 2732" xmlns="http://www.w3.org/2000/svg">
  <defs>
    <linearGradient id="bg" x1="0%" y1="0%" x2="100%" y2="100%">
      <stop offset="0%" stop-color="#3b82f6"/>
      <stop offset="50%" stop-color="#8b5cf6"/>
      <stop offset="100%" stop-color="#ec4899"/>
    </linearGradient>
  </defs>
  <rect width="2732" height="2732" fill="url(#bg)"/>
  <g transform="translate(1366,1120) scale(42) translate(-12,-12)" fill="none" stroke="#ffffff" stroke-width="2" stroke-linecap="round" stroke-linejoin="round">
    <path d="M21.42 10.922a1 1 0 0 0-.019-1.838L12.83 5.18a2 2 0 0 0-1.66 0L2.6 9.08a1 1 0 0 0 0 1.832l8.57 3.908a2 2 0 0 0 1.66 0z"/>
    <path d="M6 12v5c0 2 2 3 6 3s6-1 6-3v-5"/>
    <path d="M21.5 12v6"/>
  </g>
  <text x="1366" y="1900" font-family="Georgia, 'Times New Roman', serif" font-size="210" font-weight="700" fill="#ffffff" text-anchor="middle" letter-spacing="-6">Notare</text>
</svg>
